{"title":"Jesus Adrian Romero - Unplugged (xvid/avi)","uid":7035543,"size":1633060438,"categoryP":"video","categoryS":"music_videos","magnet":"?xt=urn:btih:51396bb0a345aebdd4b00d39d15731c9c5faca2e&amp;dn=Jesus+Adrian+Romero+-+Unplugged+%28xvid%2Favi%29&amp;tr=udp%3A%2F%2Ftracker.openbittorrent.com%3A80&amp;tr=udp%3A%2F%2Fopen.demonii.com%3A1337&amp;tr=udp%3A%2F%2Ftracker.coppersurfer.tk%3A6969&amp;tr=udp%3A%2F%2Fexodus.desync.com%3A6969","seeders":3,"leechers":1,"uploader":"MusicVideos-HQ","files":1,"time":1329363154,"description":"General\n\nFormat                           : AVI\nFormat/Info                      : Audio Video Interleave\nFile size                        : 1.52 GiB\nDuration                         : 1h 54mn\nOverall bit rate                 : 1 902 Kbps\n\nVideo\nID                               : 0\nFormat                           : MPEG-4 Visual\nFormat profile                   : Advanced Simple@L5\nFormat settings, BVOP            : 2\nFormat settings, QPel            : No\nFormat settings, GMC             : No warppoints\nFormat settings, Matrix          : Default (H.263)\nMuxing mode                      : Packed bitstream\nCodec ID                         : XVID\nCodec ID/Hint                    : XviD\nDuration                         : 1h 54mn\nBit rate                         : 1 762 Kbps\nWidth                            : 640 pixels\nHeight                           : 480 pixels\nDisplay aspect ratio             : 4:3\nFrame rate                       : 29.970 fps\nColor space                      : YUV\nChroma subsampling               : 4:2:0\nBit depth                        : 8 bits\nScan type                        : Progressive\nCompression mode                 : Lossy\nBits/(Pixel*Frame)               : 0.191\nStream size                      : 1.41 GiB (93%)\n\n\nAudio\nID                               : 1\nFormat                           : MPEG Audio\nFormat version                   : Version 1\nFormat profile                   : Layer 3\nCodec ID                         : 55\nCodec ID/Hint                    : MP3\nDuration                         : 1h 54mn\nBit rate mode                    : Constant\nBit rate                         : 128 Kbps\nChannel(s)                       : 2 channels\nSampling rate                    : 44.1 KHz\nCompression mode                 : Lossy\nStream size                      : 105 MiB (7%)\nAlignment                        : Split accross interleaves\nInterleave, duration             : 33 ms (1.00 video frame)\n\n","torrent":{"xt":"urn:btih:51396bb0a345aebdd4b00d39d15731c9c5faca2e","amp;dn":"Jesus+Adrian+Romero+-+Unplugged+%28xvid%2Favi%29","amp;tr":["udp%3A%2F%2Ftracker.openbittorrent.com%3A80","udp%3A%2F%2Fopen.demonii.com%3A1337","udp%3A%2F%2Ftracker.coppersurfer.tk%3A6969","udp%3A%2F%2Fexodus.desync.com%3A6969"],"infoHash":"51396bb0a345aebdd4b00d39d15731c9c5faca2e","infoHashBuffer":{"type":"Buffer","data":[81,57,107,176,163,69,174,189,212,176,13,57,209,87,49,201,197,250,202,46]},"announce":[],"urlList":[]}}